<svg xmlns="http://www.w3.org/2000/svg" version="1.1" xmlns:xlink="http://www.w3.org/1999/xlink" xmlns:svgjs="http://svgjs.dev/svgjs" width="1000" height="999" viewBox="0 0 1000 999"><g transform="matrix(1,0,0,1,-0.215743440233382,-0.21552769679306039)"><svg viewBox="0 0 343 343" data-background-color="#ffffff" preserveAspectRatio="xMidYMid meet" height="999" width="1000" xmlns="http://www.w3.org/2000/svg" xmlns:xlink="http://www.w3.org/1999/xlink"><g id="tight-bounds" transform="matrix(1,0,0,1,0.0740000000000407,0.07400000000001228)"><svg viewBox="0 0 342.85155851775386 342.85155851775386" height="342.85155851775386" width="342.85155851775386"><g><svg></svg></g><g><svg viewBox="0 0 342.85155851775386 342.85155851775386" height="342.85155851775386" width="342.85155851775386"><g><path d="M0 171.426c0-94.676 76.75-171.426 171.426-171.426 94.676 0 171.426 76.75 171.426 171.426 0 94.676-76.75 171.426-171.426 171.426-94.676 0-171.426-76.75-171.426-171.426zM171.426 330.779c88.008 0 159.353-71.345 159.353-159.353 0-88.008-71.345-159.353-159.353-159.353-88.008 0-159.353 71.345-159.353 159.353 0 88.008 71.345 159.353 159.353 159.353z" data-fill-palette-color="tertiary" fill="#8d021f" stroke="transparent"></path><ellipse rx="164.56874808852186" ry="164.56874808852186" cx="171.42577925887693" cy="171.42577925887693" fill="#8d021f" stroke="transparent" stroke-width="0" fill-opacity="1" data-fill-palette-color="tertiary"></ellipse></g><g transform="matrix(1,0,0,1,64.84655864529837,104.48882972717821)"><svg viewBox="0 0 213.1584412271571 133.87389906339743" height="133.87389906339743" width="213.1584412271571"><g><svg viewBox="0 0 213.1584412271571 133.87389906339743" height="133.87389906339743" width="213.1584412271571"><g><svg viewBox="0 0 213.1584412271571 133.87389906339743" height="133.87389906339743" width="213.1584412271571"><g><svg viewBox="0 0 213.1584412271571 133.87389906339743" height="133.87389906339743" width="213.1584412271571"><g id="textblocktransform"><svg viewBox="0 0 213.1584412271571 133.87389906339743" height="133.87389906339743" width="213.1584412271571" id="textblock"><g><svg viewBox="0 0 213.1584412271571 133.87389906339743" height="133.87389906339743" width="213.1584412271571"><g transform="matrix(1,0,0,1,0,0)"><svg width="213.1584412271571" viewBox="1.600000023841858 -35.75 57.400001525878906 36.04999923706055" height="133.87389906339743" data-palette-color="#d1caca"><path d="M26.9-31.65L25.2-28.85Q24.45-29.7 23.45-30.38 22.45-31.05 21.2-31.55 19.95-32.05 18.53-32.35 17.1-32.65 15.5-32.65L15.5-32.65Q10.85-32.65 8.68-30.88 6.5-29.1 6.5-26.05L6.5-26.05Q6.5-23.95 7.53-22.75 8.55-21.55 10.75-20.8 12.95-20.05 16.35-19.25L16.35-19.25Q20.15-18.45 22.9-17.35 25.65-16.25 27.15-14.38 28.65-12.5 28.65-9.3L28.65-9.3Q28.65-6.85 27.7-5.05 26.75-3.25 25.05-2.05 23.35-0.85 21-0.28 18.65 0.3 15.85 0.3L15.85 0.3Q13.1 0.3 10.58-0.28 8.05-0.85 5.8-1.98 3.55-3.1 1.6-4.85L1.6-4.85 3.35-7.7Q4.3-6.7 5.63-5.83 6.95-4.95 8.58-4.25 10.2-3.55 12.08-3.18 13.95-2.8 15.95-2.8L15.95-2.8Q20.2-2.8 22.58-4.35 24.95-5.9 24.95-8.95L24.95-8.95Q24.95-11.15 23.75-12.48 22.55-13.8 20.15-14.65 17.75-15.5 14.25-16.3L14.25-16.3Q10.55-17.15 8-18.2 5.45-19.25 4.17-20.98 2.9-22.7 2.9-25.55L2.9-25.55Q2.9-28.85 4.53-31.13 6.15-33.4 9-34.58 11.85-35.75 15.55-35.75L15.55-35.75Q17.9-35.75 19.93-35.27 21.95-34.8 23.68-33.9 25.4-33 26.9-31.65L26.9-31.65ZM57.25-31.65L55.55-28.85Q54.8-29.7 53.8-30.38 52.8-31.05 51.55-31.55 50.3-32.05 48.87-32.35 47.45-32.65 45.85-32.65L45.85-32.65Q41.2-32.65 39.02-30.88 36.85-29.1 36.85-26.05L36.85-26.05Q36.85-23.95 37.87-22.75 38.9-21.55 41.1-20.8 43.3-20.05 46.7-19.25L46.7-19.25Q50.5-18.45 53.25-17.35 56-16.25 57.5-14.38 59-12.5 59-9.3L59-9.3Q59-6.85 58.05-5.05 57.1-3.25 55.4-2.05 53.7-0.85 51.35-0.28 49 0.3 46.2 0.3L46.2 0.3Q43.45 0.3 40.92-0.28 38.4-0.85 36.15-1.98 33.9-3.1 31.95-4.85L31.95-4.85 33.7-7.7Q34.65-6.7 35.97-5.83 37.3-4.95 38.92-4.25 40.55-3.55 42.42-3.18 44.3-2.8 46.3-2.8L46.3-2.8Q50.55-2.8 52.92-4.35 55.3-5.9 55.3-8.95L55.3-8.95Q55.3-11.15 54.1-12.48 52.9-13.8 50.5-14.65 48.1-15.5 44.6-16.3L44.6-16.3Q40.9-17.15 38.35-18.2 35.8-19.25 34.52-20.98 33.25-22.7 33.25-25.55L33.25-25.55Q33.25-28.85 34.87-31.13 36.5-33.4 39.35-34.58 42.2-35.75 45.9-35.75L45.9-35.75Q48.25-35.75 50.27-35.27 52.3-34.8 54.02-33.9 55.75-33 57.25-31.65L57.25-31.65Z" opacity="1" transform="matrix(1,0,0,1,0,0)" fill="#d1caca" class="undefined-text-0" data-fill-palette-color="quaternary" id="text-0"></path></svg></g></svg></g></svg></g></svg></g><g></g></svg></g></svg></g></svg></g></svg></g><defs></defs></svg><rect width="342.85155851775386" height="342.85155851775386" fill="none" stroke="none" visibility="hidden"></rect></g></svg></g></svg>